<?xml version="1.0" encoding="utf-8"?>
<!-- Generator: Adobe Illustrator 19.0.0, SVG Export Plug-In . SVG Version: 6.00 Build 0)  -->
<!-- <svg version="1.1" id="Calque_1" xmlns="http://www.w3.org/2000/svg" xmlns:xlink="http://www.w3.org/1999/xlink" x="0px" y="0px"
	 viewBox="-387 404 1144.4 273" style="enable-background:new -387 404 1144.4 273;" xml:space="preserve">
<style type="text/css">
	.st0{fill:#334258;}
	.st1{fill:#00D1B2;}
</style>
<rect id="XMLID_25_" x="-242.2" y="407.5" class="st0" width="120.4" height="125.8"/>
<rect id="XMLID_24_" x="-242.2" y="545.2" class="st1" width="120.4" height="128.3"/>
<rect id="XMLID_23_" x="-372.5" y="407.5" class="st0" width="120.4" height="125.8"/>
<rect id="XMLID_22_" x="-372.5" y="545.2" class="st0" width="120.4" height="128.3"/>
<g>
	<path class="st0" d="M34.1,407.5c21.5,0,37.1,5,46.7,15s14.4,25.1,14.4,45.4v9.4c0,13.5-2.1,24.6-6.4,33.4
		c-4.3,8.8-11,15.3-20.3,19.5c11.3,4.3,19.2,11.2,23.8,20.8c4.6,9.6,6.9,21.5,6.9,35.5v21.4c0,20.3-5.3,35.7-15.8,46.3
		c-10.5,10.6-26.1,15.9-46.9,15.9h-64.9V407.5H34.1z M13.1,445v69.4h16.1c7.8,0,13.8-2,18.2-6c4.4-4,6.6-11.3,6.6-21.8V472
		c0-9.5-1.7-16.4-5.1-20.6c-3.4-4.3-8.7-6.4-15.9-6.4H13.1z M13.1,551.9v80.7h23.6c7,0,12.3-1.9,15.9-5.6c3.6-3.8,5.4-10.5,5.4-20.3
		v-22.9c0-12.3-2.1-20.6-6.2-25.1s-10.9-6.8-20.4-6.8L13.1,551.9L13.1,551.9z"/>
	<path class="st0" d="M163.5,407.5v202.6c0,9.5,1.9,16.1,5.8,19.9c3.9,3.8,9.1,5.6,15.6,5.6s11.7-1.9,15.6-5.6
		c3.9-3.8,5.8-10.4,5.8-19.9V407.5h39v200c0,21.3-5.2,37.6-15.6,49c-10.4,11.4-25.7,17.1-46,17.1s-35.6-5.7-46-17.1
		s-15.6-27.7-15.6-49v-200H163.5z"/>
	<path class="st0" d="M273.5,407.5h41.3v225.1h67.9v37.5H273.5V407.5z"/>
	<path class="st1" d="M454.7,565.4l-12.8,24v80.7h-41.3V407.5h41.3v114.4L496,407.5h41.3l-57.4,117.1l57.4,145.6h-42.4L454.7,565.4z
		"/>
	<path class="st1" d="M556,407.5h41.3v262.7H556V407.5z"/>
	<path class="st1" d="M615.3,407.5h127.6V445h-43.2v225.1h-41.3V445h-43.2L615.3,407.5L615.3,407.5z"/>
</g>
</svg> -->
<svg xmlns="http://www.w3.org/2000/svg" xmlns:xlink="http://www.w3.org/1999/xlink" width="286" height="102" style="enable-background:new 0 0 1144.4 273;">
<style type="text/css">
	.st0{fill:#334258;}
	.st1{fill:#00D1B2;}
</style>
  <path class="st0" stroke="#334258" stroke-width="8" d="M4.22 57.77L11.95 57.77L11.95 57.77Q12.49 71.38 23.72 71.38L23.72 71.38L23.72 71.38Q27.76 71.38 30.46 69.36L30.46 69.36L30.46 69.36Q34.23 66.44 34.23 61.18L34.23 61.18L34.23 61.18Q34.23 55.52 29.51 51.21L29.51 51.21L29.51 51.21Q26.28 48.34 18.42 43.80L18.42 43.80L18.42 43.80Q5.97 36.48 5.97 26.32L5.97 26.32L5.97 26.32Q5.97 19.90 10.02 15.45L10.02 15.45L10.02 15.45Q14.91 10.02 23.09 10.02L23.09 10.02L23.09 10.02Q38.32 10.02 40.38 28.35L40.38 28.35L32.84 28.35L32.84 28.35Q32.52 24.12 31.09 21.61L31.09 21.61L31.09 21.61Q28.21 16.53 23.09 16.53L23.09 16.53L23.09 16.53Q17.79 16.53 15.18 20.13L15.18 20.13L15.18 20.13Q13.34 22.69 13.34 25.74L13.34 25.74L13.34 25.74Q13.34 33.02 25.20 39.94L25.20 39.94L25.20 39.94Q32.52 44.20 36.43 48.11L36.43 48.11L36.43 48.11Q41.69 53.23 41.69 61.09L41.69 61.09L41.69 61.09Q41.69 68.51 36.97 73.04L36.97 73.04L36.97 73.04Q31.94 78.12 23.94 78.12L23.94 78.12L23.94 78.12Q13.93 78.12 8.36 70.75L8.36 70.75L8.36 70.75Q4.49 65.63 4.22 57.77L4.22 57.77ZM52.42 76.28L52.42 11.86L84.72 11.86L84.72 18.87L59.79 18.87L59.79 39.35L81.40 39.35L81.40 46.18L59.79 46.18L59.79 69.27L86.56 69.27L86.56 76.28L52.42 76.28ZM98.42 76.28L98.42 11.86L114.37 11.86L114.37 11.86Q122.14 11.86 127.04 15.36L127.04 15.36L127.04 15.36Q133.28 19.95 133.28 28.62L133.28 28.62L133.28 28.62Q133.28 41.28 121.24 45.01L121.24 45.01L135.04 76.28L126.59 76.28L114.06 46.22L105.61 46.22L105.61 76.28L98.42 76.28ZM113.25 18.69L105.61 18.69L105.61 39.62L113.34 39.62L113.34 39.62Q117.38 39.62 120.39 37.96L120.39 37.96L120.39 37.96Q125.92 35.08 125.92 28.79L125.92 28.79L125.92 28.79Q125.92 18.69 113.25 18.69L113.25 18.69ZM156.15 76.28L141.14 11.86L149.32 11.86L161 67.29L172.68 11.86L180.90 11.86L165.90 76.28L156.15 76.28Z"/>
  <path class="st1" stroke="#00D1B2" stroke-width="8" d="M223.69 76.28L217.80 76.28L217.80 67.61L217.80 67.61Q212.68 78.12 204.15 78.12L204.15 78.12L204.15 78.12Q195.84 78.12 190.98 69.54L190.98 69.54L190.98 69.54Q186.22 60.96 186.22 44.16L186.22 44.16L186.22 44.16Q186.22 28.39 191.21 19.14L191.21 19.14L191.21 19.14Q196.15 10.02 205.36 10.02L205.36 10.02L205.36 10.02Q220.14 10.02 223.06 30.28L223.06 30.28L215.51 30.28L215.51 30.28Q213.45 16.94 205.36 16.94L205.36 16.94L205.36 16.94Q194.13 16.94 194.13 43.98L194.13 43.98L194.13 43.98Q194.13 71.20 205 71.20L205 71.20L205 71.20Q214.88 71.20 216.99 52.24L216.99 52.24L207.29 52.24L207.29 45.64L223.69 45.64L223.69 76.28ZM251 10.02L251 10.02L251 10.02Q259.58 10.02 264.52 18.69L264.52 18.69L264.52 18.69Q269.78 27.90 269.78 44.07L269.78 44.07L269.78 44.07Q269.78 59.88 264.79 69L264.79 69L264.79 69Q259.85 78.12 251 78.12L251 78.12L251 78.12Q242.20 78.12 237.39 69.27L237.39 69.27L237.39 69.27Q232.22 59.84 232.22 43.98L232.22 43.98L232.22 43.98Q232.22 27.18 237.93 17.83L237.93 17.83L237.93 17.83Q242.73 10.02 251 10.02ZM251 16.76L251 16.76L251 16.76Q239.95 16.76 239.95 43.98L239.95 43.98L239.95 43.98Q239.95 71.38 251.09 71.38L251.09 71.38L251.09 71.38Q262.05 71.38 262.05 44.25L262.05 44.25L262.05 44.25Q262.05 16.76 251 16.76Z"/>
</svg>
