<?xml version="1.0" encoding="utf-8"?>
<!-- Generator: Adobe Illustrator 19.0.0, SVG Export Plug-In . SVG Version: 6.00 Build 0)  -->
<!-- <svg version="1.1" id="Calque_1" xmlns="http://www.w3.org/2000/svg" xmlns:xlink="http://www.w3.org/1999/xlink" x="0px" y="0px"
	 viewBox="0 0 1144.4 273" style="enable-background:new 0 0 1144.4 273;" xml:space="preserve">
<style type="text/css">
	.st0{fill:#FFFFFF;}
</style>
<rect id="XMLID_25_" x="144.8" y="3.5" class="st0" width="120.4" height="125.8"/>
<rect id="XMLID_24_" x="144.8" y="141.2" class="st0" width="120.4" height="128.3"/>
<rect id="XMLID_23_" x="14.5" y="3.5" class="st0" width="120.4" height="125.8"/>
<rect id="XMLID_22_" x="14.5" y="141.2" class="st0" width="120.4" height="128.3"/>
<g>
	<path class="st0" d="M421.1,3.5c21.5,0,37.1,5,46.7,15c9.6,10,14.4,25.1,14.4,45.4v9.4c0,13.5-2.1,24.6-6.4,33.4
		c-4.3,8.8-11,15.3-20.3,19.5c11.3,4.3,19.2,11.2,23.8,20.8c4.6,9.6,6.9,21.5,6.9,35.5v21.4c0,20.3-5.3,35.7-15.8,46.3
		c-10.5,10.6-26.1,15.9-46.9,15.9h-64.9V3.5H421.1z M400.1,41v69.4h16.1c7.8,0,13.8-2,18.2-6c4.4-4,6.6-11.3,6.6-21.8V68
		c0-9.5-1.7-16.4-5.1-20.6c-3.4-4.3-8.7-6.4-15.9-6.4H400.1z M400.1,147.9v80.7h23.6c7,0,12.3-1.9,15.9-5.6
		c3.6-3.8,5.4-10.5,5.4-20.3v-22.9c0-12.3-2.1-20.6-6.2-25.1c-4.1-4.5-10.9-6.8-20.4-6.8H400.1z"/>
	<path class="st0" d="M550.5,3.5v202.6c0,9.5,1.9,16.1,5.8,19.9c3.9,3.8,9.1,5.6,15.6,5.6c6.5,0,11.7-1.9,15.6-5.6
		c3.9-3.8,5.8-10.4,5.8-19.9V3.5h39v200c0,21.3-5.2,37.6-15.6,49c-10.4,11.4-25.7,17.1-46,17.1c-20.3,0-35.6-5.7-46-17.1
		c-10.4-11.4-15.6-27.7-15.6-49V3.5H550.5z"/>
	<path class="st0" d="M660.5,3.5h41.3v225.1h67.9v37.5H660.5V3.5z"/>
	<path class="st0" d="M841.7,161.4l-12.8,24v80.7h-41.3V3.5h41.3v114.4L883,3.5h41.3l-57.4,117.1l57.4,145.6h-42.4L841.7,161.4z"/>
	<path class="st0" d="M943,3.5h41.3v262.7H943V3.5z"/>
	<path class="st0" d="M1002.3,3.5h127.6V41h-43.2v225.1h-41.3V41h-43.2V3.5z"/>
</g>
</svg> -->
<svg xmlns="http://www.w3.org/2000/svg" xmlns:xlink="http://www.w3.org/1999/xlink" width="286" height="102" style="enable-background:new 0 0 1144.4 273;">
<style type="text/css">
	.st0{
	fill:#FFFFFF;
	}
</style>
   <path fill="#FFFFFF" stroke="#FFFFFF" stroke-width="8" d="M4.22 57.77L11.95 57.77L11.95 57.77Q12.49 71.38 23.72 71.38L23.72 71.38L23.72 71.38Q27.76 71.38 30.46 69.36L30.46 69.36L30.46 69.36Q34.23 66.44 34.23 61.18L34.23 61.18L34.23 61.18Q34.23 55.52 29.51 51.21L29.51 51.21L29.51 51.21Q26.28 48.34 18.42 43.80L18.42 43.80L18.42 43.80Q5.97 36.48 5.97 26.32L5.97 26.32L5.97 26.32Q5.97 19.90 10.02 15.45L10.02 15.45L10.02 15.45Q14.91 10.02 23.09 10.02L23.09 10.02L23.09 10.02Q38.32 10.02 40.38 28.35L40.38 28.35L32.84 28.35L32.84 28.35Q32.52 24.12 31.09 21.61L31.09 21.61L31.09 21.61Q28.21 16.53 23.09 16.53L23.09 16.53L23.09 16.53Q17.79 16.53 15.18 20.13L15.18 20.13L15.18 20.13Q13.34 22.69 13.34 25.74L13.34 25.74L13.34 25.74Q13.34 33.02 25.20 39.94L25.20 39.94L25.20 39.94Q32.52 44.20 36.43 48.11L36.43 48.11L36.43 48.11Q41.69 53.23 41.69 61.09L41.69 61.09L41.69 61.09Q41.69 68.51 36.97 73.04L36.97 73.04L36.97 73.04Q31.94 78.12 23.94 78.12L23.94 78.12L23.94 78.12Q13.93 78.12 8.36 70.75L8.36 70.75L8.36 70.75Q4.49 65.63 4.22 57.77L4.22 57.77ZM52.42 76.28L52.42 11.86L84.72 11.86L84.72 18.87L59.79 18.87L59.79 39.35L81.40 39.35L81.40 46.18L59.79 46.18L59.79 69.27L86.56 69.27L86.56 76.28L52.42 76.28ZM98.42 76.28L98.42 11.86L114.37 11.86L114.37 11.86Q122.14 11.86 127.04 15.36L127.04 15.36L127.04 15.36Q133.28 19.95 133.28 28.62L133.28 28.62L133.28 28.62Q133.28 41.28 121.24 45.01L121.24 45.01L135.04 76.28L126.59 76.28L114.06 46.22L105.61 46.22L105.61 76.28L98.42 76.28ZM113.25 18.69L105.61 18.69L105.61 39.62L113.34 39.62L113.34 39.62Q117.38 39.62 120.39 37.96L120.39 37.96L120.39 37.96Q125.92 35.08 125.92 28.79L125.92 28.79L125.92 28.79Q125.92 18.69 113.25 18.69L113.25 18.69ZM156.15 76.28L141.14 11.86L149.32 11.86L161 67.29L172.68 11.86L180.90 11.86L165.90 76.28L156.15 76.28ZM225.69 76.28L219.80 76.28L219.80 67.61L219.80 67.61Q214.68 78.12 206.15 78.12L206.15 78.12L206.15 78.12Q197.84 78.12 192.98 69.54L192.98 69.54L192.98 69.54Q188.22 60.96 188.22 44.16L188.22 44.16L188.22 44.16Q188.22 28.39 193.21 19.14L193.21 19.14L193.21 19.14Q198.15 10.02 207.36 10.02L207.36 10.02L207.36 10.02Q222.14 10.02 225.06 30.28L225.06 30.28L217.51 30.28L217.51 30.28Q215.45 16.94 207.36 16.94L207.36 16.94L207.36 16.94Q196.13 16.94 196.13 43.98L196.13 43.98L196.13 43.98Q196.13 71.20 207 71.20L207 71.20L207 71.20Q216.88 71.20 218.99 52.24L218.99 52.24L209.29 52.24L209.29 45.64L225.69 45.64L225.69 76.28ZM253 10.02L253 10.02L253 10.02Q261.58 10.02 266.52 18.69L266.52 18.69L266.52 18.69Q271.78 27.90 271.78 44.07L271.78 44.07L271.78 44.07Q271.78 59.88 266.79 69L266.79 69L266.79 69Q261.85 78.12 253 78.12L253 78.12L253 78.12Q244.20 78.12 239.39 69.27L239.39 69.27L239.39 69.27Q234.22 59.84 234.22 43.98L234.22 43.98L234.22 43.98Q234.22 27.18 239.93 17.83L239.93 17.83L239.93 17.83Q244.73 10.02 253 10.02ZM253 16.76L253 16.76L253 16.76Q241.95 16.76 241.95 43.98L241.95 43.98L241.95 43.98Q241.95 71.38 253.09 71.38L253.09 71.38L253.09 71.38Q264.05 71.38 264.05 44.25L264.05 44.25L264.05 44.25Q264.05 16.76 253 16.76Z"/>
</svg>
